<mxfile host="app.diagrams.net" agent="Mozilla/5.0 (X11; Linux x86_64) AppleWebKit/537.36 (KHTML, like Gecko) Chrome/135.0.0.0 Safari/537.36" version="26.2.12">
  <diagram name="Page-1" id="c2FTjvLPyroVzd9CdpSU">
    <mxGraphModel dx="1285" dy="833" grid="1" gridSize="10" guides="1" tooltips="1" connect="1" arrows="1" fold="1" page="1" pageScale="1" pageWidth="850" pageHeight="1100" math="0" shadow="0">
      <root>
        <mxCell id="0" />
        <mxCell id="1" parent="0" />
        <mxCell id="etiBRYvuXmw8lFhvGxon-11" style="edgeStyle=orthogonalEdgeStyle;rounded=0;orthogonalLoop=1;jettySize=auto;html=1;exitX=0.5;exitY=0;exitDx=0;exitDy=0;entryX=0.5;entryY=1;entryDx=0;entryDy=0;" edge="1" parent="1" source="u-q5HwcDcBuS_lFMa_bF-1" target="etiBRYvuXmw8lFhvGxon-3">
          <mxGeometry relative="1" as="geometry" />
        </mxCell>
        <mxCell id="u-q5HwcDcBuS_lFMa_bF-1" value="Cliente" style="whiteSpace=wrap;html=1;align=center;" parent="1" vertex="1">
          <mxGeometry x="-210" y="200" width="100" height="40" as="geometry" />
        </mxCell>
        <mxCell id="etiBRYvuXmw8lFhvGxon-8" style="edgeStyle=orthogonalEdgeStyle;rounded=0;orthogonalLoop=1;jettySize=auto;html=1;exitX=0.5;exitY=1;exitDx=0;exitDy=0;entryX=0.5;entryY=0;entryDx=0;entryDy=0;" edge="1" parent="1" source="wxmqhAFOyw_FEQ8nONu9-1" target="etiBRYvuXmw8lFhvGxon-7">
          <mxGeometry relative="1" as="geometry" />
        </mxCell>
        <mxCell id="wxmqhAFOyw_FEQ8nONu9-1" value="Pedido" style="shape=ext;margin=3;double=1;whiteSpace=wrap;html=1;align=center;" parent="1" vertex="1">
          <mxGeometry x="-80" y="110" width="100" height="40" as="geometry" />
        </mxCell>
        <mxCell id="wxmqhAFOyw_FEQ8nONu9-2" value="Editorial" style="whiteSpace=wrap;html=1;align=center;" parent="1" vertex="1">
          <mxGeometry x="-60" y="570" width="100" height="40" as="geometry" />
        </mxCell>
        <mxCell id="etiBRYvuXmw8lFhvGxon-15" style="edgeStyle=orthogonalEdgeStyle;rounded=0;orthogonalLoop=1;jettySize=auto;html=1;exitX=0.5;exitY=1;exitDx=0;exitDy=0;entryX=0.5;entryY=0;entryDx=0;entryDy=0;" edge="1" parent="1" source="wxmqhAFOyw_FEQ8nONu9-3" target="etiBRYvuXmw8lFhvGxon-14">
          <mxGeometry relative="1" as="geometry" />
        </mxCell>
        <mxCell id="etiBRYvuXmw8lFhvGxon-20" style="edgeStyle=orthogonalEdgeStyle;rounded=0;orthogonalLoop=1;jettySize=auto;html=1;exitX=1;exitY=0.5;exitDx=0;exitDy=0;entryX=0;entryY=0.5;entryDx=0;entryDy=0;" edge="1" parent="1" source="wxmqhAFOyw_FEQ8nONu9-3" target="etiBRYvuXmw8lFhvGxon-19">
          <mxGeometry relative="1" as="geometry" />
        </mxCell>
        <mxCell id="wxmqhAFOyw_FEQ8nONu9-3" value="Libro" style="shape=ext;margin=3;double=1;whiteSpace=wrap;html=1;align=center;" parent="1" vertex="1">
          <mxGeometry x="-60" y="310" width="100" height="40" as="geometry" />
        </mxCell>
        <mxCell id="wxmqhAFOyw_FEQ8nONu9-4" value="Inventario" style="shape=ext;margin=3;double=1;whiteSpace=wrap;html=1;align=center;" parent="1" vertex="1">
          <mxGeometry x="300" y="310" width="100" height="40" as="geometry" />
        </mxCell>
        <mxCell id="etiBRYvuXmw8lFhvGxon-10" style="edgeStyle=orthogonalEdgeStyle;rounded=0;orthogonalLoop=1;jettySize=auto;html=1;exitX=1;exitY=0.5;exitDx=0;exitDy=0;entryX=0.5;entryY=0;entryDx=0;entryDy=0;" edge="1" parent="1" source="etiBRYvuXmw8lFhvGxon-3" target="wxmqhAFOyw_FEQ8nONu9-1">
          <mxGeometry relative="1" as="geometry" />
        </mxCell>
        <mxCell id="etiBRYvuXmw8lFhvGxon-3" value="Realiza" style="shape=rhombus;perimeter=rhombusPerimeter;whiteSpace=wrap;html=1;align=center;" vertex="1" parent="1">
          <mxGeometry x="-220" y="20" width="120" height="60" as="geometry" />
        </mxCell>
        <mxCell id="etiBRYvuXmw8lFhvGxon-5" value="(1,1)" style="text;html=1;align=center;verticalAlign=middle;whiteSpace=wrap;rounded=0;" vertex="1" parent="1">
          <mxGeometry x="-160" y="160" width="60" height="30" as="geometry" />
        </mxCell>
        <mxCell id="etiBRYvuXmw8lFhvGxon-6" value="(0,n)" style="text;html=1;align=center;verticalAlign=middle;whiteSpace=wrap;rounded=0;" vertex="1" parent="1">
          <mxGeometry x="-90" y="20" width="60" height="30" as="geometry" />
        </mxCell>
        <mxCell id="etiBRYvuXmw8lFhvGxon-9" style="edgeStyle=orthogonalEdgeStyle;rounded=0;orthogonalLoop=1;jettySize=auto;html=1;exitX=0.5;exitY=1;exitDx=0;exitDy=0;entryX=0.5;entryY=0;entryDx=0;entryDy=0;" edge="1" parent="1" source="etiBRYvuXmw8lFhvGxon-7" target="wxmqhAFOyw_FEQ8nONu9-3">
          <mxGeometry relative="1" as="geometry" />
        </mxCell>
        <mxCell id="etiBRYvuXmw8lFhvGxon-7" value="Contiene&lt;div&gt;&lt;br&gt;&lt;/div&gt;" style="shape=rhombus;perimeter=rhombusPerimeter;whiteSpace=wrap;html=1;align=center;" vertex="1" parent="1">
          <mxGeometry x="-70" y="200" width="120" height="60" as="geometry" />
        </mxCell>
        <mxCell id="etiBRYvuXmw8lFhvGxon-12" value="(1,n)" style="text;html=1;align=center;verticalAlign=middle;whiteSpace=wrap;rounded=0;" vertex="1" parent="1">
          <mxGeometry x="-10" y="160" width="60" height="30" as="geometry" />
        </mxCell>
        <mxCell id="etiBRYvuXmw8lFhvGxon-13" value="(1,n)" style="text;html=1;align=center;verticalAlign=middle;whiteSpace=wrap;rounded=0;" vertex="1" parent="1">
          <mxGeometry y="270" width="60" height="30" as="geometry" />
        </mxCell>
        <mxCell id="etiBRYvuXmw8lFhvGxon-16" style="edgeStyle=orthogonalEdgeStyle;rounded=0;orthogonalLoop=1;jettySize=auto;html=1;exitX=0.5;exitY=1;exitDx=0;exitDy=0;entryX=0.5;entryY=0;entryDx=0;entryDy=0;" edge="1" parent="1" source="etiBRYvuXmw8lFhvGxon-14" target="wxmqhAFOyw_FEQ8nONu9-2">
          <mxGeometry relative="1" as="geometry" />
        </mxCell>
        <mxCell id="etiBRYvuXmw8lFhvGxon-14" value="pertenece" style="shape=rhombus;perimeter=rhombusPerimeter;whiteSpace=wrap;html=1;align=center;" vertex="1" parent="1">
          <mxGeometry x="-70" y="410" width="120" height="60" as="geometry" />
        </mxCell>
        <mxCell id="etiBRYvuXmw8lFhvGxon-17" value="(1,n)" style="text;html=1;align=center;verticalAlign=middle;whiteSpace=wrap;rounded=0;" vertex="1" parent="1">
          <mxGeometry x="10" y="360" width="60" height="30" as="geometry" />
        </mxCell>
        <mxCell id="etiBRYvuXmw8lFhvGxon-18" value="(1,n)" style="text;html=1;align=center;verticalAlign=middle;whiteSpace=wrap;rounded=0;" vertex="1" parent="1">
          <mxGeometry x="10" y="500" width="60" height="30" as="geometry" />
        </mxCell>
        <mxCell id="etiBRYvuXmw8lFhvGxon-21" style="edgeStyle=orthogonalEdgeStyle;rounded=0;orthogonalLoop=1;jettySize=auto;html=1;exitX=1;exitY=0.5;exitDx=0;exitDy=0;entryX=0;entryY=0.5;entryDx=0;entryDy=0;" edge="1" parent="1" source="etiBRYvuXmw8lFhvGxon-19" target="wxmqhAFOyw_FEQ8nONu9-4">
          <mxGeometry relative="1" as="geometry" />
        </mxCell>
        <mxCell id="etiBRYvuXmw8lFhvGxon-19" value="existre" style="shape=rhombus;perimeter=rhombusPerimeter;whiteSpace=wrap;html=1;align=center;" vertex="1" parent="1">
          <mxGeometry x="120" y="300" width="120" height="60" as="geometry" />
        </mxCell>
        <mxCell id="etiBRYvuXmw8lFhvGxon-22" value="(1,n)" style="text;html=1;align=center;verticalAlign=middle;whiteSpace=wrap;rounded=0;" vertex="1" parent="1">
          <mxGeometry x="50" y="300" width="60" height="30" as="geometry" />
        </mxCell>
        <mxCell id="etiBRYvuXmw8lFhvGxon-23" value="(0,1)" style="text;html=1;align=center;verticalAlign=middle;whiteSpace=wrap;rounded=0;" vertex="1" parent="1">
          <mxGeometry x="240" y="290" width="60" height="30" as="geometry" />
        </mxCell>
      </root>
    </mxGraphModel>
  </diagram>
</mxfile>
